<svg width="32.000000" height="32.000000" viewBox="0 0 32 32" fill="none" xmlns="http://www.w3.org/2000/svg" xmlns:xlink="http://www.w3.org/1999/xlink">
	<desc>
			Created with Pixso.
	</desc>
	<defs/>
	<path id="Facebook" d="M28.7998 0L3.2002 0C1.43262 0 0 1.43274 0 3.19995L0 28.8C0 30.5673 1.43262 32 3.2002 32L16 32L16 19.9529L11.2002 19.9529L11.2002 15.4353L16 15.4353L16 13.0093C16 8.41638 18.3833 6.40002 22.2798 6.40002C24.1094 6.40002 25.0938 6.53027 25.5718 6.59351L25.6001 6.59729L25.6001 10.9176L22.9424 10.9176C21.2886 10.9176 20.7998 11.7729 20.7998 13.5048L20.7998 15.4353L25.5586 15.4353L24.9004 19.9529L20.7998 19.9529L20.7998 32L28.7998 32C30.5674 32 32 30.5673 32 28.8L32 3.19995C32 1.43274 30.5674 0 28.7998 0Z" fill="#706458" fill-opacity="0.900000" fill-rule="nonzero"/>
</svg>
