<svg width="32.000000" height="32.000000" viewBox="0 0 32 32" fill="none" xmlns="http://www.w3.org/2000/svg" xmlns:xlink="http://www.w3.org/1999/xlink">
	<desc>
			Created with Pixso.
	</desc>
	<defs/>
	<path id="Instagram" d="M9.6001 0L22.3999 0C27.7021 0 32 4.2981 32 9.59998L32 22.4C32 27.7019 27.7021 32 22.3999 32L9.6001 32C4.29785 32 0 27.7019 0 22.4L0 9.59998C0 4.2981 4.29785 0 9.6001 0ZM25.6001 4.80005C26.3999 4.80005 27.2002 5.59998 27.2002 6.40002C27.2002 7.19995 26.3999 8 25.6001 8C24.7998 8 24 7.19995 24 6.40002C24 5.59998 24.7998 4.80005 25.6001 4.80005ZM24 16C24 11.588 20.4121 8 16 8C11.5879 8 8 11.588 8 16C8 20.412 11.5879 24 16 24C20.4121 24 24 20.412 24 16ZM16 11.2C13.3491 11.2 11.2002 13.349 11.2002 16C11.2002 18.651 13.3491 20.8 16 20.8C18.6509 20.8 20.7998 18.651 20.7998 16C20.7998 13.349 18.6509 11.2 16 11.2Z" fill="#706458" fill-opacity="0.900000" fill-rule="evenodd"/>
</svg>
