<svg width="32.000000" height="32.000000" viewBox="0 0 32 32" fill="none" xmlns="http://www.w3.org/2000/svg" xmlns:xlink="http://www.w3.org/1999/xlink">
	<desc>
			Created with Pixso.
	</desc>
	<defs/>
	<path id="Linkedin" d="M28.7998 0L3.2002 0C1.43262 0 0 1.43274 0 3.19995L0 28.8C0 30.5673 1.43262 32 3.2002 32L28.7998 32C30.5674 32 32 30.5673 32 28.8L32 3.19995C32 1.43274 30.5674 0 28.7998 0ZM6.3999 7.30249C6.3999 8.68396 7.52051 9.8064 8.90625 9.8064C10.2876 9.8064 11.4111 8.68396 11.4111 7.30249C11.4111 5.92236 10.2876 4.80005 8.90625 4.80005C7.52197 4.80005 6.3999 5.9209 6.3999 7.30249ZM6.80078 25.6L11.0991 25.6L11.0991 11.7819L6.80078 11.7819L6.80078 25.6ZM27.2002 25.6L22.9043 25.6L22.9043 18.8801C22.9043 17.2773 22.8755 15.2161 20.6709 15.2161C18.4341 15.2161 18.0903 16.9614 18.0903 18.7637L18.0903 25.6L13.7949 25.6L13.7949 11.7819L17.9185 11.7819L17.9185 13.67L17.9766 13.67C18.5508 12.584 19.9526 11.4384 22.0435 11.4384C26.3955 11.4384 27.2002 14.3003 27.2002 18.0212L27.2002 25.6Z" fill="#706458" fill-opacity="0.900000" fill-rule="evenodd"/>
</svg>
