<svg width="32.000000" height="32.000000" viewBox="0 0 32 32" fill="none" xmlns="http://www.w3.org/2000/svg" xmlns:xlink="http://www.w3.org/1999/xlink">
	<desc>
			Created with Pixso.
	</desc>
	<defs/>
	<path id="Twitter" d="M28.7998 0L3.2002 0C1.43262 0 0 1.43274 0 3.19995L0 28.8C0 30.5673 1.43262 32 3.2002 32L28.7998 32C30.5674 32 32 30.5673 32 28.8L32 3.19995C32 1.43274 30.5674 0 28.7998 0ZM24.5605 9.98303C25.4897 9.87549 26.3755 9.63733 27.2002 9.28333C26.584 10.1737 25.8042 10.9559 24.9058 11.5831C24.9146 11.7739 24.9189 11.9655 24.9189 12.1578C24.9189 18.0295 20.2979 24.8 11.8447 24.8C9.24902 24.8 6.83398 24.0645 4.7998 22.8042C5.16016 22.8458 5.52637 22.8667 5.89648 22.8667C8.05029 22.8667 10.0317 22.1561 11.604 20.9641C9.59326 20.9283 7.89648 19.6431 7.31152 17.8779C7.59131 17.9287 7.87988 17.957 8.17529 17.957C8.59473 17.957 9.00146 17.903 9.38672 17.8013C7.28369 17.394 5.7002 15.5981 5.7002 13.4448L5.7002 13.389C6.31982 13.7214 7.02881 13.9213 7.78174 13.9446C6.54883 13.1483 5.73828 11.7881 5.73828 10.2471C5.73828 9.43152 5.96484 8.66858 6.35938 8.01221C8.62695 10.701 12.0127 12.4702 15.8315 12.6552C15.7539 12.3312 15.7129 11.9913 15.7129 11.6431C15.7129 9.18994 17.77 7.19995 20.3081 7.19995C21.6294 7.19995 22.8237 7.73975 23.6616 8.60352C24.7095 8.40369 25.6934 8.03381 26.5806 7.5249C26.2378 8.56274 25.5098 9.43323 24.5605 9.98303Z" fill="#706458" fill-opacity="0.900000" fill-rule="evenodd"/>
</svg>
