<svg width="91.366699" height="27.914001" viewBox="0 0 91.3667 27.914" fill="none" xmlns="http://www.w3.org/2000/svg" xmlns:xlink="http://www.w3.org/1999/xlink">
	<desc>
			Created with Pixso.
	</desc>
	<defs/>
	<path d="M0.000238299 22.236C0.000238299 25.942 2.65224 27.914 5.74624 27.914C8.53424 27.914 10.5402 26.248 11.4242 25.262L11.4242 26.18C11.4242 27.608 11.8322 27.914 13.3622 27.914C14.7222 27.914 16.7282 27.608 17.5102 27.404L17.5102 25.5L15.6742 25.5L15.6742 15.096C15.6742 10.166 14.0082 8.228 8.80624 8.228C4.96424 8.228 1.56424 10.132 0.782238 10.812L1.83624 12.988C2.92424 12.478 4.99824 11.458 7.58224 11.458C10.5062 11.458 11.1522 12.58 11.1522 15.198L11.1522 15.98C4.99824 16.014 0.000238299 17.918 0.000238299 22.236ZM7.92224 25.092C6.22224 25.092 5.06624 23.97 5.06624 21.76C5.06624 19.72 6.86824 18.054 11.1522 18.054L11.1522 23.63C10.2682 24.412 8.90824 25.092 7.92224 25.092ZM23.5361 25.194L21.5641 25.5L21.5641 27.54L30.4381 27.54L30.4381 25.5L28.3981 25.194L28.3981 12.818C29.3501 12.104 30.9481 11.152 32.5461 11.152C34.8921 11.152 35.4361 12.478 35.4361 15.844L35.4361 25.228L33.6001 25.5L33.6001 27.54L42.3721 27.54L42.3721 25.5L40.298 25.228L40.298 15.844C40.298 10.404 38.9721 8.262 34.8581 8.262C32.0701 8.262 29.3501 9.69 27.9221 11.016L27.9561 10.2L27.9561 8.874L27.1061 8.194L27.0041 8.194L21.3601 8.908L21.3601 11.254L23.5361 11.866L23.5361 25.194ZM52.4866 27.846C54.9346 27.846 57.6886 26.86 58.8446 25.976L58.1986 24.072C57.4846 24.378 56.1246 24.718 54.9006 24.718C53.3366 24.718 53.1666 24.446 53.1666 20.808L53.1666 11.254L58.3346 11.254L58.3346 8.636L53.1326 8.636L52.9966 3.638L50.2766 3.638C50.0046 4.59 49.5286 6.324 49.1546 7.174C48.8826 7.922 48.5766 8.398 48.1686 8.704C47.6586 8.942 46.7406 9.248 46.0946 9.486L46.0946 11.254L48.3046 11.254L48.3046 23.732C48.3046 26.656 49.6986 27.846 52.4866 27.846ZM66.6995 5.542L66.7335 5.542C68.7395 5.542 69.8275 4.318 69.8275 2.55C69.8275 1.19 68.9775 0 67.0395 0C65.1695 0 64.0475 1.292 64.0475 2.992C64.0475 4.42 64.9995 5.542 66.6995 5.542ZM64.8975 25.194L62.5175 25.5L62.5175 27.54L72.0035 27.54L72.0035 25.5L69.7255 25.228L69.7255 8.874L68.7735 8.194L68.7055 8.194L62.4835 8.942L62.4835 11.22L64.8975 11.866L64.8975 25.194ZM75.9986 18.258C75.9986 23.766 78.7186 27.914 84.7366 27.914C87.8306 27.914 90.4146 26.35 91.3666 25.33L90.5846 23.562C89.5306 24.242 87.9326 24.956 85.8246 24.956C83.0366 24.956 81.0986 22.372 81.0986 17.238C81.1326 12.308 82.7646 10.37 85.1786 10.37C86.0966 10.37 87.0146 10.574 87.1846 11.254L88.0346 14.994L90.9926 14.994L91.1966 9.18C90.1426 8.976 88.4766 8.16 85.6546 8.16C79.6706 8.16 75.9646 12.342 75.9986 18.258Z" fill="#534B42" fill-opacity="1.000000" fill-rule="evenodd"/>
</svg>
